<svg width="279" height="44" viewBox="0 0 279 44" fill="none" xmlns="http://www.w3.org/2000/svg">
<path d="M21.6574 0L40.4133 10.8287V32.4862L21.6574 43.3149L2.90155 32.4862V10.8287L21.6574 0Z" fill="#065E7C"/>
<path d="M62.7644 35H57.4907V13.5779C57.4907 12.0868 57.7817 10.832 58.3636 9.81361C58.9576 8.78312 59.7881 8.00722 60.8549 7.48592C61.9339 6.95249 63.2129 6.68577 64.692 6.68577C65.1769 6.68577 65.6437 6.72214 66.0923 6.79488C66.5408 6.8555 66.9773 6.9343 67.4016 7.03129L67.347 10.9775C67.1167 10.9168 66.8742 10.8744 66.6196 10.8502C66.365 10.8259 66.068 10.8138 65.7286 10.8138C65.0981 10.8138 64.5586 10.9229 64.1101 11.1411C63.6736 11.3472 63.3402 11.6564 63.1099 12.0686C62.8796 12.4808 62.7644 12.9839 62.7644 13.5779V35ZM66.6924 15.3237V19.0335H54.5629V15.3237H66.6924ZM68.6018 25.3619V24.98C68.6018 23.5373 68.8079 22.2098 69.2201 20.9975C69.6323 19.773 70.2324 18.7122 71.0204 17.8151C71.8084 16.9179 72.7783 16.2208 73.93 15.7238C75.0818 15.2146 76.4032 14.96 77.8944 14.96C79.3856 14.96 80.7131 15.2146 81.8769 15.7238C83.0408 16.2208 84.0167 16.9179 84.8047 17.8151C85.6049 18.7122 86.2111 19.773 86.6233 20.9975C87.0355 22.2098 87.2416 23.5373 87.2416 24.98V25.3619C87.2416 26.7924 87.0355 28.12 86.6233 29.3444C86.2111 30.5568 85.6049 31.6176 84.8047 32.5268C84.0167 33.424 83.0469 34.1211 81.8951 34.6181C80.7434 35.1152 79.422 35.3637 77.9308 35.3637C76.4396 35.3637 75.1121 35.1152 73.9482 34.6181C72.7965 34.1211 71.8206 33.424 71.0204 32.5268C70.2324 31.6176 69.6323 30.5568 69.2201 29.3444C68.8079 28.12 68.6018 26.7924 68.6018 25.3619ZM73.8391 24.98V25.3619C73.8391 26.1863 73.9119 26.9561 74.0573 27.6714C74.2028 28.3867 74.4332 29.0171 74.7484 29.5626C75.0757 30.0961 75.5 30.5143 76.0213 30.8174C76.5426 31.1205 77.1791 31.2721 77.9308 31.2721C78.6582 31.2721 79.2825 31.1205 79.8038 30.8174C80.3251 30.5143 80.7434 30.0961 81.0586 29.5626C81.3738 29.0171 81.6042 28.3867 81.7496 27.6714C81.9073 26.9561 81.9861 26.1863 81.9861 25.3619V24.98C81.9861 24.1799 81.9073 23.4282 81.7496 22.725C81.6042 22.0098 81.3678 21.3793 81.0404 20.8338C80.7252 20.2761 80.307 19.8397 79.7857 19.5245C79.2643 19.2093 78.6339 19.0517 77.8944 19.0517C77.1549 19.0517 76.5245 19.2093 76.0031 19.5245C75.494 19.8397 75.0757 20.2761 74.7484 20.8338C74.4332 21.3793 74.2028 22.0098 74.0573 22.725C73.9119 23.4282 73.8391 24.1799 73.8391 24.98ZM89.6238 25.3619V24.98C89.6238 23.5373 89.8299 22.2098 90.2421 20.9975C90.6543 19.773 91.2544 18.7122 92.0424 17.8151C92.8304 16.9179 93.8003 16.2208 94.952 15.7238C96.1038 15.2146 97.4252 14.96 98.9164 14.96C100.408 14.96 101.735 15.2146 102.899 15.7238C104.063 16.2208 105.039 16.9179 105.827 17.8151C106.627 18.7122 107.233 19.773 107.645 20.9975C108.057 22.2098 108.264 23.5373 108.264 24.98V25.3619C108.264 26.7924 108.057 28.12 107.645 29.3444C107.233 30.5568 106.627 31.6176 105.827 32.5268C105.039 33.424 104.069 34.1211 102.917 34.6181C101.765 35.1152 100.444 35.3637 98.9528 35.3637C97.4616 35.3637 96.1341 35.1152 94.9702 34.6181C93.8185 34.1211 92.8426 33.424 92.0424 32.5268C91.2544 31.6176 90.6543 30.5568 90.2421 29.3444C89.8299 28.12 89.6238 26.7924 89.6238 25.3619ZM94.8611 24.98V25.3619C94.8611 26.1863 94.9339 26.9561 95.0793 27.6714C95.2248 28.3867 95.4552 29.0171 95.7704 29.5626C96.0977 30.0961 96.522 30.5143 97.0433 30.8174C97.5646 31.1205 98.2011 31.2721 98.9528 31.2721C99.6802 31.2721 100.305 31.1205 100.826 30.8174C101.347 30.5143 101.765 30.0961 102.081 29.5626C102.396 29.0171 102.626 28.3867 102.772 27.6714C102.929 26.9561 103.008 26.1863 103.008 25.3619V24.98C103.008 24.1799 102.929 23.4282 102.772 22.725C102.626 22.0098 102.39 21.3793 102.062 20.8338C101.747 20.2761 101.329 19.8397 100.808 19.5245C100.286 19.2093 99.6559 19.0517 98.9164 19.0517C98.1769 19.0517 97.5465 19.2093 97.0251 19.5245C96.516 19.8397 96.0977 20.2761 95.7704 20.8338C95.4552 21.3793 95.2248 22.0098 95.0793 22.725C94.9339 23.4282 94.8611 24.1799 94.8611 24.98ZM123.103 30.7083V7.06766H128.376V35H123.63L123.103 30.7083ZM110.664 25.3983V25.0164C110.664 23.5131 110.834 22.1492 111.173 20.9247C111.513 19.6881 112.01 18.6273 112.664 17.7423C113.319 16.8573 114.125 16.1723 115.083 15.6874C116.041 15.2025 117.132 14.96 118.356 14.96C119.508 14.96 120.514 15.2025 121.375 15.6874C122.248 16.1723 122.987 16.8634 123.594 17.7605C124.212 18.6455 124.709 19.6942 125.085 20.9065C125.461 22.1068 125.733 23.4221 125.903 24.8527V25.6892C125.733 27.0592 125.461 28.3321 125.085 29.5081C124.709 30.6841 124.212 31.7146 123.594 32.5996C122.987 33.4725 122.248 34.1514 121.375 34.6363C120.502 35.1212 119.484 35.3637 118.32 35.3637C117.095 35.3637 116.004 35.1152 115.047 34.6181C114.101 34.1211 113.301 33.424 112.646 32.5268C112.004 31.6297 111.513 30.575 111.173 29.3626C110.834 28.1503 110.664 26.8288 110.664 25.3983ZM115.901 25.0164V25.3983C115.901 26.2105 115.962 26.9682 116.083 27.6714C116.217 28.3746 116.429 28.9989 116.72 29.5445C117.023 30.0779 117.411 30.4962 117.883 30.7992C118.368 31.0902 118.956 31.2357 119.647 31.2357C120.545 31.2357 121.284 31.0356 121.866 30.6356C122.448 30.2234 122.89 29.6596 123.194 28.9444C123.509 28.2291 123.691 27.4047 123.739 26.4712V24.0889C123.703 23.3252 123.594 22.6402 123.412 22.034C123.242 21.4157 122.987 20.8883 122.648 20.4519C122.321 20.0155 121.908 19.676 121.411 19.4335C120.926 19.1911 120.351 19.0698 119.684 19.0698C119.005 19.0698 118.423 19.2274 117.938 19.5426C117.453 19.8457 117.059 20.264 116.756 20.7974C116.465 21.3309 116.247 21.9613 116.101 22.6887C115.968 23.404 115.901 24.1799 115.901 25.0164ZM150.799 35.3637C149.271 35.3637 147.901 35.1212 146.689 34.6363C145.476 34.1392 144.446 33.4543 143.597 32.5814C142.761 31.7085 142.118 30.6962 141.67 29.5445C141.221 28.3806 140.997 27.144 140.997 25.8347V25.1073C140.997 23.6161 141.209 22.2522 141.633 21.0156C142.058 19.7791 142.664 18.7061 143.452 17.7969C144.252 16.8876 145.222 16.1905 146.361 15.7056C147.501 15.2085 148.786 14.96 150.217 14.96C151.611 14.96 152.847 15.1903 153.926 15.651C155.005 16.1117 155.909 16.7664 156.636 17.615C157.375 18.4637 157.933 19.482 158.309 20.6701C158.685 21.8461 158.873 23.1554 158.873 24.5981V26.7803H143.234V23.2888H153.726V22.8887C153.726 22.1613 153.593 21.5127 153.326 20.9429C153.072 20.361 152.684 19.9003 152.162 19.5608C151.641 19.2214 150.974 19.0517 150.162 19.0517C149.471 19.0517 148.877 19.2032 148.38 19.5063C147.883 19.8094 147.477 20.2337 147.162 20.7792C146.858 21.3248 146.628 21.9673 146.47 22.7069C146.325 23.4343 146.252 24.2344 146.252 25.1073V25.8347C146.252 26.6227 146.361 27.3501 146.58 28.0169C146.81 28.6837 147.131 29.2596 147.543 29.7445C147.968 30.2294 148.477 30.6053 149.071 30.872C149.677 31.1387 150.362 31.2721 151.126 31.2721C152.072 31.2721 152.95 31.0902 153.763 30.7265C154.587 30.3507 155.296 29.7869 155.89 29.0353L158.436 31.7994C158.024 32.3935 157.46 32.9633 156.745 33.5088C156.042 34.0544 155.193 34.5029 154.199 34.8545C153.205 35.194 152.072 35.3637 150.799 35.3637ZM166.074 15.3237L169.329 21.3066L172.675 15.3237H178.258L172.693 24.9436L178.513 35H172.912L169.366 28.6716L165.819 35H160.218L166.038 24.9436L160.473 15.3237H166.074ZM186.041 19.1062V42.565H180.804V15.3237H185.659L186.041 19.1062ZM198.498 24.9436V25.3255C198.498 26.7561 198.328 28.0836 197.989 29.3081C197.662 30.5325 197.177 31.5994 196.534 32.5086C195.892 33.4058 195.091 34.1089 194.134 34.6181C193.188 35.1152 192.097 35.3637 190.86 35.3637C189.66 35.3637 188.618 35.1212 187.733 34.6363C186.848 34.1514 186.102 33.4725 185.496 32.5996C184.902 31.7146 184.423 30.6901 184.059 29.5263C183.695 28.3624 183.417 27.1137 183.223 25.7801V24.78C183.417 23.3494 183.695 22.0401 184.059 20.852C184.423 19.6518 184.902 18.6152 185.496 17.7423C186.102 16.8573 186.841 16.1723 187.714 15.6874C188.599 15.2025 189.636 14.96 190.824 14.96C192.073 14.96 193.17 15.1964 194.115 15.6692C195.073 16.142 195.873 16.8209 196.516 17.706C197.171 18.591 197.662 19.6457 197.989 20.8702C198.328 22.0946 198.498 23.4524 198.498 24.9436ZM193.243 25.3255V24.9436C193.243 24.1071 193.17 23.3373 193.024 22.6341C192.891 21.9188 192.673 21.2945 192.37 20.7611C192.079 20.2276 191.691 19.8154 191.206 19.5245C190.733 19.2214 190.157 19.0698 189.478 19.0698C188.763 19.0698 188.151 19.185 187.642 19.4154C187.145 19.6457 186.738 19.9791 186.423 20.4155C186.108 20.852 185.872 21.3733 185.714 21.9795C185.556 22.5856 185.459 23.2706 185.423 24.0344V26.5621C185.484 27.4592 185.653 28.2654 185.932 28.9807C186.211 29.6839 186.641 30.2416 187.223 30.6538C187.805 31.066 188.569 31.2721 189.515 31.2721C190.206 31.2721 190.788 31.1205 191.26 30.8174C191.733 30.5022 192.115 30.0718 192.406 29.5263C192.709 28.9807 192.921 28.3503 193.043 27.635C193.176 26.9197 193.243 26.1499 193.243 25.3255ZM207.282 7.06766V35H202.026V7.06766H207.282ZM210.773 25.3619V24.98C210.773 23.5373 210.979 22.2098 211.391 20.9975C211.804 19.773 212.404 18.7122 213.192 17.8151C213.98 16.9179 214.95 16.2208 216.101 15.7238C217.253 15.2146 218.574 14.96 220.066 14.96C221.557 14.96 222.884 15.2146 224.048 15.7238C225.212 16.2208 226.188 16.9179 226.976 17.8151C227.776 18.7122 228.382 19.773 228.795 20.9975C229.207 22.2098 229.413 23.5373 229.413 24.98V25.3619C229.413 26.7924 229.207 28.12 228.795 29.3444C228.382 30.5568 227.776 31.6176 226.976 32.5268C226.188 33.424 225.218 34.1211 224.066 34.6181C222.915 35.1152 221.593 35.3637 220.102 35.3637C218.611 35.3637 217.283 35.1152 216.119 34.6181C214.968 34.1211 213.992 33.424 213.192 32.5268C212.404 31.6176 211.804 30.5568 211.391 29.3444C210.979 28.12 210.773 26.7924 210.773 25.3619ZM216.01 24.98V25.3619C216.01 26.1863 216.083 26.9561 216.229 27.6714C216.374 28.3867 216.604 29.0171 216.92 29.5626C217.247 30.0961 217.671 30.5143 218.193 30.8174C218.714 31.1205 219.35 31.2721 220.102 31.2721C220.829 31.2721 221.454 31.1205 221.975 30.8174C222.496 30.5143 222.915 30.0961 223.23 29.5626C223.545 29.0171 223.775 28.3867 223.921 27.6714C224.079 26.9561 224.157 26.1863 224.157 25.3619V24.98C224.157 24.1799 224.079 23.4282 223.921 22.725C223.775 22.0098 223.539 21.3793 223.212 20.8338C222.896 20.2761 222.478 19.8397 221.957 19.5245C221.436 19.2093 220.805 19.0517 220.066 19.0517C219.326 19.0517 218.696 19.2093 218.174 19.5245C217.665 19.8397 217.247 20.2761 216.92 20.8338C216.604 21.3793 216.374 22.0098 216.229 22.725C216.083 23.4282 216.01 24.1799 216.01 24.98ZM237.869 19.6154V35H232.632V15.3237H237.56L237.869 19.6154ZM243.797 15.1964L243.706 20.0518C243.452 20.0155 243.143 19.9852 242.779 19.9609C242.427 19.9245 242.106 19.9064 241.815 19.9064C241.076 19.9064 240.433 20.0033 239.887 20.1973C239.354 20.3792 238.905 20.6519 238.542 21.0156C238.19 21.3793 237.923 21.8219 237.742 22.3432C237.572 22.8645 237.475 23.4585 237.451 24.1253L236.396 23.798C236.396 22.525 236.523 21.3551 236.778 20.2882C237.032 19.2093 237.402 18.2697 237.887 17.4695C238.384 16.6694 238.99 16.0511 239.706 15.6147C240.421 15.1782 241.239 14.96 242.161 14.96C242.452 14.96 242.749 14.9842 243.052 15.0327C243.355 15.0691 243.603 15.1237 243.797 15.1964ZM254.963 35.3637C253.435 35.3637 252.065 35.1212 250.853 34.6363C249.641 34.1392 248.61 33.4543 247.762 32.5814C246.925 31.7085 246.283 30.6962 245.834 29.5445C245.385 28.3806 245.161 27.144 245.161 25.8347V25.1073C245.161 23.6161 245.373 22.2522 245.798 21.0156C246.222 19.7791 246.828 18.7061 247.616 17.7969C248.416 16.8876 249.386 16.1905 250.526 15.7056C251.665 15.2085 252.95 14.96 254.381 14.96C255.775 14.96 257.012 15.1903 258.091 15.651C259.17 16.1117 260.073 16.7664 260.8 17.615C261.54 18.4637 262.098 19.482 262.473 20.6701C262.849 21.8461 263.037 23.1554 263.037 24.5981V26.7803H247.398V23.2888H257.891V22.8887C257.891 22.1613 257.757 21.5127 257.491 20.9429C257.236 20.361 256.848 19.9003 256.327 19.5608C255.805 19.2214 255.139 19.0517 254.326 19.0517C253.635 19.0517 253.041 19.2032 252.544 19.5063C252.047 19.8094 251.641 20.2337 251.326 20.7792C251.023 21.3248 250.792 21.9673 250.635 22.7069C250.489 23.4343 250.417 24.2344 250.417 25.1073V25.8347C250.417 26.6227 250.526 27.3501 250.744 28.0169C250.974 28.6837 251.296 29.2596 251.708 29.7445C252.132 30.2294 252.641 30.6053 253.235 30.872C253.841 31.1387 254.526 31.2721 255.29 31.2721C256.236 31.2721 257.115 31.0902 257.927 30.7265C258.751 30.3507 259.461 29.7869 260.055 29.0353L262.601 31.7994C262.188 32.3935 261.625 32.9633 260.909 33.5088C260.206 34.0544 259.358 34.5029 258.364 34.8545C257.369 35.194 256.236 35.3637 254.963 35.3637ZM271.257 19.6154V35H266.019V15.3237H270.948L271.257 19.6154ZM277.185 15.1964L277.094 20.0518C276.84 20.0155 276.53 19.9852 276.167 19.9609C275.815 19.9245 275.494 19.9064 275.203 19.9064C274.463 19.9064 273.821 20.0033 273.275 20.1973C272.742 20.3792 272.293 20.6519 271.93 21.0156C271.578 21.3793 271.311 21.8219 271.129 22.3432C270.96 22.8645 270.863 23.4585 270.839 24.1253L269.784 23.798C269.784 22.525 269.911 21.3551 270.166 20.2882C270.42 19.2093 270.79 18.2697 271.275 17.4695C271.772 16.6694 272.378 16.0511 273.093 15.6147C273.809 15.1782 274.627 14.96 275.548 14.96C275.839 14.96 276.136 14.9842 276.44 15.0327C276.743 15.0691 276.991 15.1237 277.185 15.1964Z" fill="white"/>
</svg>
